Units are S.I. units (second, meters, Newtons, ...)
Angles are in degrees.
name squat
datarows 5
datacolumns 13
range 0  2
endheader
time exo_pelvis_tx exo_pelvis_ty exo_pelvis_tz exo_pelvis_tilt exo_pelvis_list exo_pelvis_rotation exo_hip_r exo_hip_l exo_knee_r exo_knee_l r_ankle_coupling l_ankle_coupling 
0.0e0 -3.455259e-01 9.453734e-01 -1.584092e-06 0.000000e+00 0.000000e+00 0.000000e+00 -4.991319e+00 -4.992626e+00 2.132662e+00 2.135478e+00 2.858654e+00 2.857152e+00 
0.5e0 -3.439227e-01 9.451411e-01 -7.905455e-05 0.000000e+00 0.000000e+00 0.000000e+00 1.568308e+01 -2.756703e+00 -3.071511e+01 -2.994901e+00 1.503134e+01 5.750904e+00 
1.0e0 -2.604635e-01 9.346821e-01 -9.729113e-06 0.000000e+00 0.000000e+00 0.000000e+00 2.248331e+01 -1.029135e+01 -4.701966e+01 -4.244858e-01 2.453635e+01 1.071583e+01 
1.5e0 -2.410584e-01 9.308384e-01 -1.013000e-05 0.000000e+00 0.000000e+00 0.000000e+00 2.220249e+01 -1.172243e+01 -3.671623e+01 -5.582131e-01 1.451259e+01 1.227950e+01 
2.0e0 -2.152758e-01 9.249007e-01 1.013000e-05 0.000000e+00 0.000000e+00 0.000000e+00 1.889864e+01 -1.378721e+01 -2.154799e+01 -4.115907e-01 2.648196e+00 1.419765e+01 
